<svg viewBox="0 0 1000 800" xmlns="http://www.w3.org/2000/svg">
  <!-- 배경 -->
  <rect width="1000" height="800" fill="#f8f9fa"/>
  
  <!-- 제목 -->
  <text x="500" y="30" text-anchor="middle" font-size="24" font-weight="bold" fill="#2c3e50">
    십진수 → 이진수 변환 쉽게 이해하기
  </text>
  
  <!-- 정수 부분: 12 → 1100 -->
  <g>
    <rect x="30" y="60" width="940" height="200" fill="#e3f2fd" stroke="#1976d2" stroke-width="2" rx="10"/>
    <text x="50" y="85" font-size="20" font-weight="bold" fill="#1976d2">정수 부분: 12 (십진수) → 1100 (이진수)</text>
    
    <text x="50" y="115" font-size="16" fill="#333" font-weight="bold">방법: 2로 계속 나누면서 나머지를 기록</text>
    
    <!-- 나눗셈 과정 -->
    <g transform="translate(50, 130)">
      <rect x="0" y="0" width="120" height="30" fill="#bbdefb" stroke="#1976d2"/>
      <text x="60" y="20" text-anchor="middle" font-size="14" fill="#1976d2" font-weight="bold">12 ÷ 2 = 6 나머지 0</text>
      
      <rect x="130" y="0" width="120" height="30" fill="#bbdefb" stroke="#1976d2"/>
      <text x="190" y="20" text-anchor="middle" font-size="14" fill="#1976d2" font-weight="bold">6 ÷ 2 = 3 나머지 0</text>
      
      <rect x="260" y="0" width="120" height="30" fill="#bbdefb" stroke="#1976d2"/>
      <text x="320" y="20" text-anchor="middle" font-size="14" fill="#1976d2" font-weight="bold">3 ÷ 2 = 1 나머지 1</text>
      
      <rect x="390" y="0" width="120" height="30" fill="#bbdefb" stroke="#1976d2"/>
      <text x="450" y="20" text-anchor="middle" font-size="14" fill="#1976d2" font-weight="bold">1 ÷ 2 = 0 나머지 1</text>
      
      <!-- 화살표와 결과 -->
      <path d="M 450 40 Q 450 50 450 60 Q 450 70 320 70 Q 190 70 60 70 Q 30 70 30 80" 
            stroke="#e91e63" stroke-width="3" fill="none" marker-end="url(#arrowhead)"/>
      
      <text x="250" y="100" text-anchor="middle" font-size="16" fill="#e91e63" font-weight="bold">
        나머지를 거꾸로 읽으면: 1100
      </text>
    </g>
    
    <!-- 검증 -->
    <text x="50" y="220" font-size="14" fill="#4caf50" font-weight="bold">검증: 1×8 + 1×4 + 0×2 + 0×1 = 8 + 4 + 0 + 0 = 12 ✓</text>
    <text x="50" y="240" font-size="12" fill="#666">       2³   2²   2¹   2⁰</text>
  </g>
  
  <!-- 소수 부분: 0.5 → 0.1 -->
  <g>
    <rect x="30" y="280" width="940" height="220" fill="#f3e5f5" stroke="#7b1fa2" stroke-width="2" rx="10"/>
    <text x="50" y="305" font-size="20" font-weight="bold" fill="#7b1fa2">소수 부분: 0.5 (십진수) → 0.1 (이진수)</text>
    
    <text x="50" y="335" font-size="16" fill="#333" font-weight="bold">방법: 2를 계속 곱하면서 정수 부분을 기록</text>
    
    <!-- 곱셈 과정 -->
    <g transform="translate(50, 350)">
      <rect x="0" y="0" width="200" height="30" fill="#e1bee7" stroke="#7b1fa2"/>
      <text x="100" y="20" text-anchor="middle" font-size="14" fill="#7b1fa2" font-weight="bold">0.5 × 2 = 1.0</text>
      
      <rect x="220" y="0" width="200" height="30" fill="#fff3e0" stroke="#ff9800"/>
      <text x="320" y="20" text-anchor="middle" font-size="14" fill="#ff9800" font-weight="bold">정수부분: 1, 소수부분: 0</text>
      
      <text x="100" y="60" font-size="14" fill="#7b1fa2" font-weight="bold">소수 부분이 0이 되었으므로 끝!</text>
      <text x="100" y="80" font-size="16" fill="#e91e63" font-weight="bold">결과: 0.1</text>
    </g>
    
    <!-- 검증 -->
    <text x="50" y="460" font-size="14" fill="#4caf50" font-weight="bold">검증: 1×(1/2) = 1×0.5 = 0.5 ✓</text>
    <text x="50" y="480" font-size="12" fill="#666">       2⁻¹</text>
  </g>
  
  <!-- 합치기 -->
  <g>
    <rect x="30" y="520" width="940" height="120" fill="#e8f5e8" stroke="#4caf50" stroke-width="2" rx="10"/>
    <text x="50" y="545" font-size="20" font-weight="bold" fill="#2e7d32">최종 결합</text>
    
    <text x="50" y="575" font-size="18" fill="#333">12 (십진수) = 1100 (이진수)</text>
    <text x="50" y="605" font-size="18" fill="#333">0.5 (십진수) = 0.1 (이진수)</text>
    <text x="50" y="625" font-size="20" fill="#2e7d32" font-weight="bold">12.5 (십진수) = 1100.1 (이진수)</text>
  </g>
  
  <!-- 다른 예시들 -->
  <g>
    <rect x="30" y="660" width="940" height="120" fill="#fff3e0" stroke="#f57c00" stroke-width="2" rx="10"/>
    <text x="50" y="685" font-size="18" font-weight="bold" fill="#f57c00">다른 쉬운 예시들</text>
    
    <text x="50" y="710" font-size="14" fill="#333">• 1 (십진수) = 1 (이진수)</text>
    <text x="250" y="710" font-size="14" fill="#333">• 2 (십진수) = 10 (이진수)</text>
    <text x="450" y="710" font-size="14" fill="#333">• 4 (십진수) = 100 (이진수)</text>
    
    <text x="50" y="735" font-size="14" fill="#333">• 0.25 (십진수) = 0.01 (이진수)</text>
    <text x="250" y="735" font-size="14" fill="#333">• 0.75 (십진수) = 0.11 (이진수)</text>
    
    <text x="50" y="760" font-size="12" fill="#d32f2f">• 0.1 (십진수) = 0.000110011... (이진수, 무한반복!) ← 정확히 표현 불가능</text>
  </g>
  
  <!-- 화살표 정의 -->
  <defs>
    <marker id="arrowhead" markerWidth="10" markerHeight="7" 
     refX="10" refY="3.5" orient="auto">
      <polygon points="0 0, 10 3.5, 0 7" fill="#e91e63"/>
    </marker>
  </defs>
</svg>