<svg viewBox="0 0 1100 800" xmlns="http://www.w3.org/2000/svg">
  <!-- 배경 -->
  <rect width="1100" height="800" fill="#f8f9fa"/>
  
  <!-- 제목 -->
  <text x="550" y="30" text-anchor="middle" font-size="24" font-weight="bold" fill="#2c3e50">
    왜 지수에 127을 더할까? (바이어스 Bias의 필요성)
  </text>
  
  <!-- 문제 상황 -->
  <g>
    <rect x="30" y="60" width="1040" height="120" fill="#ffebee" stroke="#f44336" stroke-width="2" rx="10"/>
    <text x="50" y="85" font-size="18" font-weight="bold" fill="#d32f2f">문제: 지수가 음수일 수 있다!</text>
    
    <text x="50" y="110" font-size="14" fill="#333">• 0.5 = 1.0 × 2⁻¹ (지수가 -1)</text>
    <text x="300" y="110" font-size="14" fill="#333">• 0.25 = 1.0 × 2⁻² (지수가 -2)</text>
    <text x="550" y="110" font-size="14" fill="#333">• 12.5 = 1.1001 × 2³ (지수가 +3)</text>
    
    <text x="50" y="135" font-size="14" fill="#d32f2f" font-weight="bold">하지만 컴퓨터는 음수를 저장하기 어려워요!</text>
    <text x="50" y="155" font-size="12" fill="#666">8비트에서 음수 표현은 복잡하고, 비교 연산도 어려움</text>
  </g>
  
  <!-- 해결책: 바이어스 -->
  <g>
    <rect x="30" y="200" width="1040" height="160" fill="#e8f5e8" stroke="#4caf50" stroke-width="2" rx="10"/>
    <text x="50" y="225" font-size="18" font-weight="bold" fill="#2e7d32">해결책: 바이어스(Bias) 127을 더하자!</text>
    
    <text x="50" y="250" font-size="14" fill="#333" font-weight="bold">실제 지수에 127을 더해서 항상 양수로 만들기</text>
    
    <!-- 바이어스 예시 테이블 -->
    <g transform="translate(50, 270)">
      <!-- 헤더 -->
      <rect x="0" y="0" width="150" height="30" fill="#c8e6c9" stroke="#4caf50"/>
      <text x="75" y="20" text-anchor="middle" font-size="12" font-weight="bold">실제 지수</text>
      
      <rect x="150" y="0" width="150" height="30" fill="#c8e6c9" stroke="#4caf50"/>
      <text x="225" y="20" text-anchor="middle" font-size="12" font-weight="bold">바이어스 적용</text>
      
      <rect x="300" y="0" width="150" height="30" fill="#c8e6c9" stroke="#4caf50"/>
      <text x="375" y="20" text-anchor="middle" font-size="12" font-weight="bold">저장되는 값</text>
      
      <rect x="450" y="0" width="200" height="30" fill="#c8e6c9" stroke="#4caf50"/>
      <text x="550" y="20" text-anchor="middle" font-size="12" font-weight="bold">의미</text>
      
      <!-- 데이터 행들 -->
      <!-- -2 -->
      <rect x="0" y="30" width="150" height="25" fill="#fff" stroke="#4caf50"/>
      <text x="75" y="47" text-anchor="middle" font-size="11">-2</text>
      
      <rect x="150" y="30" width="150" height="25" fill="#fff" stroke="#4caf50"/>
      <text x="225" y="47" text-anchor="middle" font-size="11">-2 + 127 = 125</text>
      
      <rect x="300" y="30" width="150" height="25" fill="#fff" stroke="#4caf50"/>
      <text x="375" y="47" text-anchor="middle" font-size="11">01111101</text>
      
      <rect x="450" y="30" width="200" height="25" fill="#fff" stroke="#4caf50"/>
      <text x="550" y="47" text-anchor="middle" font-size="11">0.25 (매우 작은 수)</text>
      
      <!-- -1 -->
      <rect x="0" y="55" width="150" height="25" fill="#f9f9f9" stroke="#4caf50"/>
      <text x="75" y="72" text-anchor="middle" font-size="11">-1</text>
      
      <rect x="150" y="55" width="150" height="25" fill="#f9f9f9" stroke="#4caf50"/>
      <text x="225" y="72" text-anchor="middle" font-size="11">-1 + 127 = 126</text>
      
      <rect x="300" y="55" width="150" height="25" fill="#f9f9f9" stroke="#4caf50"/>
      <text x="375" y="72" text-anchor="middle" font-size="11">01111110</text>
      
      <rect x="450" y="55" width="200" height="25" fill="#f9f9f9" stroke="#4caf50"/>
      <text x="550" y="72" text-anchor="middle" font-size="11">0.5</text>
      
      <!-- 0 -->
      <rect x="0" y="80" width="150" height="25" fill="#fff" stroke="#4caf50"/>
      <text x="75" y="97" text-anchor="middle" font-size="11">0</text>
      
      <rect x="150" y="80" width="150" height="25" fill="#fff" stroke="#4caf50"/>
      <text x="225" y="97" text-anchor="middle" font-size="11">0 + 127 = 127</text>
      
      <rect x="300" y="80" width="150" height="25" fill="#fff" stroke="#4caf50"/>
      <text x="375" y="97" text-anchor="middle" font-size="11">01111111</text>
      
      <rect x="450" y="80" width="200" height="25" fill="#fff" stroke="#4caf50"/>
      <text x="550" y="97" text-anchor="middle" font-size="11">1.0</text>
      
      <!-- 3 (우리 예시) -->
      <rect x="0" y="105" width="150" height="25" fill="#e3f2fd" stroke="#1976d2" stroke-width="2"/>
      <text x="75" y="122" text-anchor="middle" font-size="11" font-weight="bold">3</text>
      
      <rect x="150" y="105" width="150" height="25" fill="#e3f2fd" stroke="#1976d2" stroke-width="2"/>
      <text x="225" y="122" text-anchor="middle" font-size="11" font-weight="bold">3 + 127 = 130</text>
      
      <rect x="300" y="105" width="150" height="25" fill="#e3f2fd" stroke="#1976d2" stroke-width="2"/>
      <text x="375" y="122" text-anchor="middle" font-size="11" font-weight="bold">10000010</text>
      
      <rect x="450" y="105" width="200" height="25" fill="#e3f2fd" stroke="#1976d2" stroke-width="2"/>
      <text x="550" y="122" text-anchor="middle" font-size="11" font-weight="bold">12.5 (우리 예시!)</text>
    </g>
  </g>
  
  <!-- 왜 127인가? -->
  <g>
    <rect x="30" y="380" width="1040" height="140" fill="#fff3e0" stroke="#f57c00" stroke-width="2" rx="10"/>
    <text x="50" y="405" font-size="18" font-weight="bold" fill="#e65100">왜 하필 127일까?</text>
    
    <text x="50" y="430" font-size="14" fill="#333">8비트로 표현할 수 있는 수: 0 ~ 255 (총 256개)</text>
    <text x="50" y="455" font-size="14" fill="#333">• 가장 작은 지수: -127 (0 + (-127) = -127)</text>
    <text x="50" y="480" font-size="14" fill="#333">• 가장 큰 지수: +128 (255 + (-127) = 128)</text>
    <text x="50" y="505" font-size="14" fill="#e65100" font-weight="bold">127은 정확히 중간값! (-127 ~ +128 범위를 0 ~ 255로 변환)</text>
  </g>
  
  <!-- 장점 -->
  <g>
    <rect x="30" y="540" width="1040" height="120" fill="#e3f2fd" stroke="#1976d2" stroke-width="2" rx="10"/>
    <text x="50" y="565" font-size="18" font-weight="bold" fill="#1976d2">바이어스 방식의 장점</text>
    
    <text x="50" y="590" font-size="14" fill="#333">1. 음수 지수도 양수로 저장 → 이진 표현이 간단</text>
    <text x="50" y="615" font-size="14" fill="#333">2. 숫자 비교가 쉬워짐 → 큰 바이어스값 = 큰 실제 지수</text>
    <text x="50" y="640" font-size="14" fill="#333">3. 특수값 처리 용이 → 0, 무한대, NaN 등을 쉽게 구분</text>
  </g>
  
  <!-- 요약 -->
  <g>
    <rect x="30" y="680" width="1040" height="100" fill="#f3e5f5" stroke="#9c27b0" stroke-width="2" rx="10"/>
    <text x="50" y="705" font-size="18" font-weight="bold" fill="#7b1fa2">💡 정리</text>
    
    <text x="50" y="730" font-size="16" fill="#333" font-weight="bold">3 + 127 = 130의 의미:</text>
    <text x="50" y="755" font-size="14" fill="#333">• 실제 지수는 3이지만, 메모리에는 130으로 저장</text>
    <text x="50" y="770" font-size="14" fill="#333">• 읽을 때는 다시 130 - 127 = 3으로 복원해서 계산</text>
  </g>
</svg>